<svg viewBox="0 0 500 500" xmlns="http://www.w3.org/2000/svg" xml:space="preserve" style="fill-rule:evenodd;clip-rule:evenodd;stroke-linejoin:round;stroke-miterlimit:2"><path d="m151.015 334.021-48.943 108.955a6.25 6.25 0 0 0 6.608 8.745l51.137-7.502 28.357 43.21a6.25 6.25 0 0 0 10.926-.868L250 373.25l50.9 113.311a6.25 6.25 0 0 0 10.926.868l28.357-43.21 51.137 7.502a6.25 6.25 0 0 0 6.608-8.745l-48.943-108.955c47.201-31.857 78.265-85.84 78.265-147.021C427.25 89.173 347.827 9.75 250 9.75S72.75 89.173 72.75 187c0 61.181 31.064 115.164 78.265 147.021Zm187.269 6.682c-23.406 13.483-50.177 21.774-78.737 23.294L307.63 471.04l24.29-37.012a6.25 6.25 0 0 1 6.132-2.755l43.802 6.425-43.57-96.995Zm-176.568 0-43.57 96.995 43.802-6.425a6.25 6.25 0 0 1 6.132 2.755l24.29 37.012 48.083-107.043c-28.558-1.517-55.333-9.809-78.737-23.294ZM250 22.25c90.928 0 164.75 73.822 164.75 164.75S340.928 351.75 250 351.75 85.25 277.928 85.25 187 159.072 22.25 250 22.25Zm0 17.323c-81.367 0-147.427 66.06-147.427 147.427 0 81.367 66.06 147.427 147.427 147.427 81.367 0 147.427-66.06 147.427-147.427 0-81.367-66.06-147.427-147.427-147.427Zm0 12.5c74.468 0 134.927 60.459 134.927 134.927 0 74.468-60.459 134.927-134.927 134.927-74.468 0-134.927-60.459-134.927-134.927 0-74.468 60.459-134.927 134.927-134.927Zm5.684 32.269a6.25 6.25 0 0 0-11.368 0l-26.562 58.107-63.471 7.306a6.25 6.25 0 0 0-3.513 10.812l47.054 43.218-12.665 62.622a6.249 6.249 0 0 0 9.198 6.682L250 241.693l55.643 31.396a6.25 6.25 0 0 0 9.198-6.682l-12.665-62.622 47.054-43.218a6.25 6.25 0 0 0-3.513-10.812l-63.471-7.306-26.562-58.107ZM250 101.974l22.344 48.879a6.251 6.251 0 0 0 4.969 3.611l53.392 6.146-39.582 36.354a6.253 6.253 0 0 0-1.899 5.842l10.654 52.678-46.807-26.411a6.252 6.252 0 0 0-6.142 0l-46.807 26.411 10.654-52.678a6.253 6.253 0 0 0-1.899-5.842l-39.582-36.354 53.392-6.146a6.251 6.251 0 0 0 4.969-3.611L250 101.974Z"/></svg>